{
  "accessors": [
    {
      "bufferView": 2,
      "componentType": 5126,
      "count": 65532,
      "max": [
        1.19234299659729,
        18.823389053344727,
        3.865351915359497
      ],
      "min": [
        -2.251660108566284,
        15.651750564575195,
        0.5986570119857788
      ],
      "type": "VEC3"
    },
    {
      "bufferView": 2,
      "byteOffset": 786384,
      "componentType": 5126,
      "count": 65532,
      "max": [
        0.9999929070472717,
        0.9999907612800598,
        0.9999966621398926
      ],
      "min": [
        -0.9999565482139587,
        -0.9998540282249451,
        -0.9999960064888
      ],
      "type": "VEC3"
    },
    {
      "bufferView": 3,
      "componentType": 5126,
      "count": 65532,
      "max": [
        0.9411764740943909,
        0.9058823585510254,
        0.886274516582489,
        1.0
      ],
      "min": [
        0.0313725508749485,
        0.0117647061124444,
        0.003921568859368563,
        1.0
      ],
      "type": "VEC4"
    },
    {
      "bufferView": 1,
      "componentType": 5126,
      "count": 65532,
      "max": [
        0.9767749905586243,
        0.9999480247497559
      ],
      "min": [
        0.00010299999848939478,
        0.025436999276280403
      ],
      "type": "VEC2"
    },
    {
      "bufferView": 0,
      "componentType": 5125,
      "count": 372078,
      "type": "SCALAR"
    },
    {
      "bufferView": 2,
      "byteOffset": 1572768,
      "componentType": 5126,
      "count": 65534,
      "max": [
        1.1725549697875977,
        18.5886287689209,
        3.442873954772949
      ],
      "min": [
        -2.6106600761413574,
        14.674356460571289,
        -0.558184027671814
      ],
      "type": "VEC3"
    },
    {
      "bufferView": 2,
      "byteOffset": 2359176,
      "componentType": 5126,
      "count": 65534,
      "max": [
        0.9999825358390808,
        0.9999127388000488,
        0.9999665021896362
      ],
      "min": [
        -0.9999508857727051,
        -0.999986469745636,
        -0.9999960064888
      ],
      "type": "VEC3"
    },
    {
      "bufferView": 3,
      "byteOffset": 1048512,
      "componentType": 5126,
      "count": 65534,
      "max": [
        0.95686274766922,
        0.9254902005195618,
        0.9254902005195618,
        1.0
      ],
      "min": [
        0.03529411926865578,
        0.0235294122248888,
        0.0,
        1.0
      ],
      "type": "VEC4"
    },
    {
      "bufferView": 1,
      "byteOffset": 524256,
      "componentType": 5126,
      "count": 65534,
      "max": [
        0.9898769855499268,
        0.9999060034751892
      ],
      "min": [
        0.0017460000235587358,
        2.499999936844688e-05
      ],
      "type": "VEC2"
    },
    {
      "bufferView": 0,
      "byteOffset": 1488312,
      "componentType": 5125,
      "count": 362835,
      "type": "SCALAR"
    },
    {
      "bufferView": 2,
      "byteOffset": 3145584,
      "componentType": 5126,
      "count": 5260,
      "max": [
        0.8145020008087158,
        18.07695770263672,
        2.4054970741271973
      ],
      "min": [
        -2.259958028793335,
        14.948139190673828,
        0.5093110203742981
      ],
      "type": "VEC3"
    },
    {
      "bufferView": 2,
      "byteOffset": 3208704,
      "componentType": 5126,
      "count": 5260,
      "max": [
        0.9997643828392029,
        0.9999122619628906,
        0.984507143497467
      ],
      "min": [
        -0.9997181296348572,
        -0.9969252347946167,
        -0.9985736608505249
      ],
      "type": "VEC3"
    },
    {
      "bufferView": 3,
      "byteOffset": 2097056,
      "componentType": 5126,
      "count": 5260,
      "max": [
        0.9490196108818054,
        0.9254902005195618,
        0.9176470637321472,
        1.0
      ],
      "min": [
        0.07058823853731155,
        0.03529411926865578,
        0.003921568859368563,
        1.0
      ],
      "type": "VEC4"
    },
    {
      "bufferView": 1,
      "byteOffset": 1048528,
      "componentType": 5126,
      "count": 5260,
      "max": [
        0.9695119857788086,
        0.9999889731407166
      ],
      "min": [
        0.010828999802470207,
        0.03729899972677231
      ],
      "type": "VEC2"
    },
    {
      "bufferView": 0,
      "byteOffset": 2939652,
      "componentType": 5125,
      "count": 15087,
      "type": "SCALAR"
    }
  ],
  "asset": {
    "extras": {
      "author": "Museo [UV] Historia Natural (https://sketchfab.com/MUVHN)",
      "license": "SKETCHFAB Standard (https://sketchfab.com/licenses)",
      "source": "https://sketchfab.com/3d-models/magnesite-mineral-ffb21659cc444eb9b475b3dc89176596",
      "title": "Magnesite mineral"
    },
    "generator": "Sketchfab-16.7.0",
    "version": "2.0"
  },
  "bufferViews": [
    {
      "buffer": 0,
      "byteLength": 3000000,
      "name": "floatBufferViews",
      "target": 34963
    },
    {
      "buffer": 0,
      "byteLength": 1090608,
      "byteOffset": 3000000,
      "byteStride": 8,
      "name": "floatBufferViews",
      "target": 34962
    },
    {
      "buffer": 0,
      "byteLength": 3271824,
      "byteOffset": 4090608,
      "byteStride": 12,
      "name": "floatBufferViews",
      "target": 34962
    },
    {
      "buffer": 0,
      "byteLength": 2181216,
      "byteOffset": 7362432,
      "byteStride": 16,
      "name": "floatBufferViews",
      "target": 34962
    }
  ],
  "buffers": [
    {
      "byteLength": 9543648,
      "uri": "scene.bin"
    }
  ],
  "images": [
    {
      "uri": "textures/Magnesita_albatera.1001_baseColor.jpeg"
    }
  ],
  "materials": [
    {
      "doubleSided": true,
      "name": "Magnesita_albatera.1001",
      "pbrMetallicRoughness": {
        "baseColorTexture": {
          "index": 0
        },
        "metallicFactor": 0.0
      }
    }
  ],
  "meshes": [
    {
      "name": "Object_0",
      "primitives": [
        {
          "attributes": {
            "COLOR_0": 2,
            "NORMAL": 1,
            "POSITION": 0,
            "TEXCOORD_0": 3
          },
          "indices": 4,
          "material": 0,
          "mode": 4
        }
      ]
    },
    {
      "name": "Object_1",
      "primitives": [
        {
          "attributes": {
            "COLOR_0": 7,
            "NORMAL": 6,
            "POSITION": 5,
            "TEXCOORD_0": 8
          },
          "indices": 9,
          "material": 0,
          "mode": 4
        }
      ]
    },
    {
      "name": "Object_2",
      "primitives": [
        {
          "attributes": {
            "COLOR_0": 12,
            "NORMAL": 11,
            "POSITION": 10,
            "TEXCOORD_0": 13
          },
          "indices": 14,
          "material": 0,
          "mode": 4
        }
      ]
    }
  ],
  "nodes": [
    {
      "children": [
        1
      ],
      "matrix": [
        0.45289796590805054,
        -0.14538730680942555,
        0.8796283006668091,
        0.0,
        0.23642395436763763,
        -0.9317081570625304,
        -0.27572378516197227,
        0.0,
        0.8596436381340027,
        0.3328399360179902,
        -0.3875956833362579,
        0.0,
        0.0,
        0.0,
        0.0,
        1.0
      ],
      "name": "Sketchfab_model"
    },
    {
      "children": [
        2,
        3,
        4
      ],
      "name": "Magnesita_albatera.obj.cleaner.materialmerger.gles"
    },
    {
      "mesh": 0,
      "name": "Object_2"
    },
    {
      "mesh": 1,
      "name": "Object_3"
    },
    {
      "mesh": 2,
      "name": "Object_4"
    }
  ],
  "samplers": [
    {
      "magFilter": 9729,
      "minFilter": 9987,
      "wrapS": 10497,
      "wrapT": 10497
    }
  ],
  "scene": 0,
  "scenes": [
    {
      "name": "Sketchfab_Scene",
      "nodes": [
        0
      ]
    }
  ],
  "textures": [
    {
      "sampler": 0,
      "source": 0
    }
  ]
}
