{"accessors" : [{"bufferView" : 0, "byteOffset" : 0, "componentType" : 5123, "count" : 237492, "type" : "SCALAR", "max" : [42554], "min" : [0]}, {"bufferView" : 1, "byteOffset" : 0, "componentType" : 5126, "count" : 42555, "type" : "VEC3", "max" : [1.652506947517395, 0.561955988407135, 1.5243929624557495], "min" : [-1.653130054473877, -0.20623600482940674, -1.6846539974212646], "name" : "POSITION"}, {"bufferView" : 1, "byteOffset" : 12, "componentType" : 5126, "count" : 42555, "type" : "VEC2", "max" : [0.9799010157585144, 0.9054660201072693], "min" : [0.020607000216841698, 0.0948830246925354], "name" : "TEXCOORD_0"}, {"bufferView" : 1, "byteOffset" : 20, "componentType" : 5126, "count" : 42555, "type" : "VEC3", "max" : [0.9238247871398926, 1.0000044107437134, 0.8596228957176208], "min" : [-0.8911447525024414, 0.2544651925563812, -0.9319260716438293], "name" : "NORMAL"}], "asset" : {"generator" : "Aspose.3D 24.9.1", "version" : "2.0"}, "buffers" : [{"uri" : "data:application/octet-stream;base64,", "byteLength" : 1836752}], "bufferViews" : [{"buffer" : 0, "byteOffset" : 0, "byteLength" : 474984, "target" : 34963}, {"buffer" : 0, "byteOffset" : 474988, "byteLength" : 1361760, "byteStride" : 32, "target" : 34962}], "meshes" : [{"primitives" : [{"attributes" : {"POSITION" : 1, "TEXCOORD_0" : 2, "NORMAL" : 3}, "indices" : 0, "mode" : 4}], "name" : ""}], "nodes" : [{"mesh" : 0, "name" : ""}], "scene" : 0, "scenes" : [{"nodes" : [0]}]}