{
  "accessors": [
    {
      "bufferView": 2,
      "componentType": 5126,
      "count": 30778,
      "max": [
        0.26577115058898926,
        0.1872074455022812,
        0.21799643337726593
      ],
      "min": [
        -0.27187132835388184,
        -0.17939235270023346,
        -0.20862583816051483
      ],
      "type": "VEC3"
    },
    {
      "bufferView": 2,
      "byteOffset": 369336,
      "componentType": 5126,
      "count": 30778,
      "max": [
        0.9987452030181885,
        0.9999872446060181,
        0.9987878203392029
      ],
      "min": [
        -0.9999860525131226,
        -0.9999479651451111,
        -0.9946560263633728
      ],
      "type": "VEC3"
    },
    {
      "bufferView": 1,
      "componentType": 5126,
      "count": 30778,
      "max": [
        0.9697614908218384,
        0.9982318878173828
      ],
      "min": [
        0.0017682173056527972,
        0.0017682909965515137
      ],
      "type": "VEC2"
    },
    {
      "bufferView": 1,
      "byteOffset": 246224,
      "componentType": 5126,
      "count": 30778,
      "max": [
        0.9697614908218384,
        0.9982318878173828
      ],
      "min": [
        0.0017682173056527972,
        0.0017682909965515137
      ],
      "type": "VEC2"
    },
    {
      "bufferView": 1,
      "byteOffset": 492448,
      "componentType": 5126,
      "count": 30778,
      "max": [
        0.9697614908218384,
        0.9982318878173828
      ],
      "min": [
        0.0017682173056527972,
        0.0017682909965515137
      ],
      "type": "VEC2"
    },
    {
      "bufferView": 0,
      "componentType": 5125,
      "count": 149808,
      "type": "SCALAR"
    }
  ],
  "asset": {
    "extras": {
      "author": "omw100 (https://sketchfab.com/omw100)",
      "license": "SKETCHFAB Standard (https://sketchfab.com/licenses)",
      "source": "https://sketchfab.com/3d-models/wood-015ae0ebca81446d948b25b95608de93",
      "title": "Wood"
    },
    "generator": "Sketchfab-16.28.0",
    "version": "2.0"
  },
  "bufferViews": [
    {
      "buffer": 0,
      "byteLength": 599232,
      "name": "floatBufferViews",
      "target": 34963
    },
    {
      "buffer": 0,
      "byteLength": 738672,
      "byteOffset": 599232,
      "byteStride": 8,
      "name": "floatBufferViews",
      "target": 34962
    },
    {
      "buffer": 0,
      "byteLength": 738672,
      "byteOffset": 1337904,
      "byteStride": 12,
      "name": "floatBufferViews",
      "target": 34962
    }
  ],
  "buffers": [
    {
      "byteLength": 2076576,
      "uri": "scene.bin"
    }
  ],
  "images": [
    {
      "uri": "textures/Material_0_baseColor.jpeg"
    },
    {
      "uri": "textures/Material_0_metallicRoughness.png"
    }
  ],
  "materials": [
    {
      "doubleSided": true,
      "name": "Material_0",
      "pbrMetallicRoughness": {
        "baseColorTexture": {
          "index": 0
        },
        "metallicRoughnessTexture": {
          "index": 1
        }
      }
    }
  ],
  "meshes": [
    {
      "name": "Object_0",
      "primitives": [
        {
          "attributes": {
            "NORMAL": 1,
            "POSITION": 0,
            "TEXCOORD_0": 2,
            "TEXCOORD_1": 3,
            "TEXCOORD_2": 4
          },
          "indices": 5,
          "material": 0,
          "mode": 4
        }
      ]
    }
  ],
  "nodes": [
    {
      "children": [
        1
      ],
      "matrix": [
        1.0,
        0.0,
        0.0,
        0.0,
        0.0,
        2.220446049250313e-16,
        -1.0,
        0.0,
        0.0,
        1.0,
        2.220446049250313e-16,
        0.0,
        0.0,
        0.0,
        0.0,
        1.0
      ],
      "name": "Sketchfab_model"
    },
    {
      "children": [
        2
      ],
      "name": "root"
    },
    {
      "children": [
        3
      ],
      "matrix": [
        1.0,
        0.0,
        0.0,
        0.0,
        0.0,
        2.220446049250313e-16,
        1.0,
        0.0,
        0.0,
        -1.0,
        2.220446049250313e-16,
        0.0,
        0.0,
        0.0,
        0.0,
        1.0
      ],
      "name": "GLTF_SceneRootNode"
    },
    {
      "children": [
        4
      ],
      "matrix": [
        1.8599721193313599,
        0.0,
        0.0,
        0.0,
        0.0,
        1.8599721193313599,
        0.0,
        0.0,
        0.0,
        0.0,
        1.8599721193313599,
        0.0,
        0.0,
        0.0,
        0.0,
        1.0
      ],
      "name": "high_poly_0"
    },
    {
      "mesh": 0,
      "name": "Object_4"
    }
  ],
  "samplers": [
    {
      "magFilter": 9729,
      "minFilter": 9987,
      "wrapS": 10497,
      "wrapT": 10497
    }
  ],
  "scene": 0,
  "scenes": [
    {
      "name": "Sketchfab_Scene",
      "nodes": [
        0
      ]
    }
  ],
  "textures": [
    {
      "sampler": 0,
      "source": 0
    },
    {
      "sampler": 0,
      "source": 1
    }
  ]
}
