{
  "accessors": [
    {
      "bufferView": 2,
      "componentType": 5126,
      "count": 39343,
      "max": [
        0.2862480580806732,
        0.15947943925857544,
        0.2791531980037689
      ],
      "min": [
        -0.27832844853401184,
        -0.15497827529907227,
        -0.2778762876987457
      ],
      "type": "VEC3"
    },
    {
      "bufferView": 2,
      "byteOffset": 472116,
      "componentType": 5126,
      "count": 39343,
      "max": [
        0.9998540878295898,
        0.9999608993530273,
        0.999779999256134
      ],
      "min": [
        -0.9999836683273315,
        -1.0,
        -0.9994969964027405
      ],
      "type": "VEC3"
    },
    {
      "bufferView": 1,
      "componentType": 5126,
      "count": 39343,
      "max": [
        0.9892529249191284,
        0.996528148651123
      ],
      "min": [
        0.0034719135146588087,
        0.0034720301628112793
      ],
      "type": "VEC2"
    },
    {
      "bufferView": 1,
      "byteOffset": 314744,
      "componentType": 5126,
      "count": 39343,
      "max": [
        0.9892529249191284,
        0.996528148651123
      ],
      "min": [
        0.0034719135146588087,
        0.0034720301628112793
      ],
      "type": "VEC2"
    },
    {
      "bufferView": 1,
      "byteOffset": 629488,
      "componentType": 5126,
      "count": 39343,
      "max": [
        0.9892529249191284,
        0.996528148651123
      ],
      "min": [
        0.0034719135146588087,
        0.0034720301628112793
      ],
      "type": "VEC2"
    },
    {
      "bufferView": 0,
      "componentType": 5125,
      "count": 148848,
      "type": "SCALAR"
    }
  ],
  "asset": {
    "extras": {
      "author": "omw100 (https://sketchfab.com/omw100)",
      "license": "SKETCHFAB Standard (https://sketchfab.com/licenses)",
      "source": "https://sketchfab.com/3d-models/food-5ab165f80fd84edc8a4c96f7448c5b42",
      "title": "Food"
    },
    "generator": "Sketchfab-16.29.0",
    "version": "2.0"
  },
  "bufferViews": [
    {
      "buffer": 0,
      "byteLength": 595392,
      "name": "floatBufferViews",
      "target": 34963
    },
    {
      "buffer": 0,
      "byteLength": 944232,
      "byteOffset": 595392,
      "byteStride": 8,
      "name": "floatBufferViews",
      "target": 34962
    },
    {
      "buffer": 0,
      "byteLength": 944232,
      "byteOffset": 1539624,
      "byteStride": 12,
      "name": "floatBufferViews",
      "target": 34962
    }
  ],
  "buffers": [
    {
      "byteLength": 2483856,
      "uri": "scene.bin"
    }
  ],
  "images": [
    {
      "uri": "textures/Material_0_baseColor.jpeg"
    },
    {
      "uri": "textures/Material_0_metallicRoughness.png"
    }
  ],
  "materials": [
    {
      "doubleSided": true,
      "name": "Material_0",
      "pbrMetallicRoughness": {
        "baseColorTexture": {
          "index": 0
        },
        "metallicRoughnessTexture": {
          "index": 1
        }
      }
    }
  ],
  "meshes": [
    {
      "name": "Object_0",
      "primitives": [
        {
          "attributes": {
            "NORMAL": 1,
            "POSITION": 0,
            "TEXCOORD_0": 2,
            "TEXCOORD_1": 3,
            "TEXCOORD_2": 4
          },
          "indices": 5,
          "material": 0,
          "mode": 4
        }
      ]
    }
  ],
  "nodes": [
    {
      "children": [
        1
      ],
      "matrix": [
        1.0,
        0.0,
        0.0,
        0.0,
        0.0,
        2.220446049250313e-16,
        -1.0,
        0.0,
        0.0,
        1.0,
        2.220446049250313e-16,
        0.0,
        0.0,
        0.0,
        0.0,
        1.0
      ],
      "name": "Sketchfab_model"
    },
    {
      "children": [
        2
      ],
      "name": "root"
    },
    {
      "children": [
        3
      ],
      "matrix": [
        1.0,
        0.0,
        0.0,
        0.0,
        0.0,
        2.220446049250313e-16,
        1.0,
        0.0,
        0.0,
        -1.0,
        2.220446049250313e-16,
        0.0,
        0.0,
        0.0,
        0.0,
        1.0
      ],
      "name": "GLTF_SceneRootNode"
    },
    {
      "children": [
        4
      ],
      "matrix": [
        1.771239161491394,
        0.0,
        0.0,
        0.0,
        0.0,
        1.771239161491394,
        0.0,
        0.0,
        0.0,
        0.0,
        1.771239161491394,
        0.0,
        0.0,
        0.0,
        0.0,
        1.0
      ],
      "name": "high_poly_0"
    },
    {
      "mesh": 0,
      "name": "Object_4"
    }
  ],
  "samplers": [
    {
      "magFilter": 9729,
      "minFilter": 9987,
      "wrapS": 10497,
      "wrapT": 10497
    }
  ],
  "scene": 0,
  "scenes": [
    {
      "name": "Sketchfab_Scene",
      "nodes": [
        0
      ]
    }
  ],
  "textures": [
    {
      "sampler": 0,
      "source": 0
    },
    {
      "sampler": 0,
      "source": 1
    }
  ]
}
