{
  "accessors": [
    {
      "bufferView": 2,
      "componentType": 5126,
      "count": 998,
      "max": [
        41.933799743652344,
        25.356700897216797,
        43.99699783325195
      ],
      "min": [
        0.0,
        0.0,
        0.0
      ],
      "type": "VEC3"
    },
    {
      "bufferView": 2,
      "byteOffset": 11976,
      "componentType": 5126,
      "count": 998,
      "max": [
        0.9985910654067993,
        0.9997579455375671,
        0.9815117120742798
      ],
      "min": [
        -0.9985910654067993,
        -0.9997144341468811,
        -0.9969062209129333
      ],
      "type": "VEC3"
    },
    {
      "bufferView": 1,
      "componentType": 5126,
      "count": 998,
      "max": [
        0.9916999936103821,
        0.9901000261306763
      ],
      "min": [
        0.0052999998442828655,
        0.0044999998062849045
      ],
      "type": "VEC2"
    },
    {
      "bufferView": 0,
      "componentType": 5125,
      "count": 4464,
      "type": "SCALAR"
    }
  ],
  "asset": {
    "extras": {
      "author": "Phuc Nguyen (https://sketchfab.com/phucn)",
      "license": "CC-BY-4.0 (http://creativecommons.org/licenses/by/4.0/)",
      "source": "https://sketchfab.com/3d-models/miner-8861a2771fa449aab24669144590cf61",
      "title": "Miner"
    },
    "generator": "Sketchfab-12.67.0",
    "version": "2.0"
  },
  "bufferViews": [
    {
      "buffer": 0,
      "byteLength": 17856,
      "name": "floatBufferViews",
      "target": 34963
    },
    {
      "buffer": 0,
      "byteLength": 7984,
      "byteOffset": 17856,
      "byteStride": 8,
      "name": "floatBufferViews",
      "target": 34962
    },
    {
      "buffer": 0,
      "byteLength": 23952,
      "byteOffset": 25840,
      "byteStride": 12,
      "name": "floatBufferViews",
      "target": 34962
    }
  ],
  "buffers": [
    {
      "byteLength": 49792,
      "uri": "scene.bin"
    }
  ],
  "images": [
    {
      "uri": "textures/01___Default_baseColor.png"
    }
  ],
  "materials": [
    {
      "alphaMode": "BLEND",
      "doubleSided": true,
      "name": "01___Default",
      "pbrMetallicRoughness": {
        "baseColorTexture": {
          "index": 0
        },
        "metallicFactor": 0.0
      }
    }
  ],
  "meshes": [
    {
      "name": "Object_0",
      "primitives": [
        {
          "attributes": {
            "NORMAL": 1,
            "POSITION": 0,
            "TEXCOORD_0": 2
          },
          "indices": 3,
          "material": 0,
          "mode": 4
        }
      ]
    }
  ],
  "nodes": [
    {
      "children": [
        1
      ],
      "matrix": [
        0.03333333507180214,
        0.0,
        0.0,
        0.0,
        0.0,
        7.401487216851996e-18,
        -0.03333333507180214,
        0.0,
        0.0,
        0.03333333507180214,
        7.401487216851996e-18,
        0.0,
        0.0,
        0.0,
        0.0,
        1.0
      ],
      "name": "Sketchfab_model"
    },
    {
      "children": [
        2
      ],
      "matrix": [
        1.0,
        0.0,
        0.0,
        0.0,
        0.0,
        1.0,
        0.0,
        0.0,
        0.0,
        0.0,
        1.0,
        0.0,
        -20.966899871826172,
        -12.630900382995605,
        -0.0034000000450760126,
        1.0
      ],
      "name": "d5fe77eadc684be2979a5b6544c888fa.obj.cleaner.gles"
    },
    {
      "children": [
        3
      ],
      "name": "Object_2"
    },
    {
      "mesh": 0,
      "name": "Object_3"
    }
  ],
  "samplers": [
    {
      "magFilter": 9729,
      "minFilter": 9987,
      "wrapS": 10497,
      "wrapT": 10497
    }
  ],
  "scene": 0,
  "scenes": [
    {
      "name": "Sketchfab_Scene",
      "nodes": [
        0
      ]
    }
  ],
  "textures": [
    {
      "sampler": 0,
      "source": 0
    }
  ]
}
